<?xml version="1.0" encoding="utf-8"?>
<!-- Generator: Adobe Illustrator 17.0.0, SVG Export Plug-In . SVG Version: 6.00 Build 0)  -->
<!DOCTYPE svg PUBLIC "-//W3C//DTD SVG 1.1//EN" "http://www.w3.org/Graphics/SVG/1.1/DTD/svg11.dtd">
<svg version="1.1" id="Слой_1" xmlns="http://www.w3.org/2000/svg" xmlns:xlink="http://www.w3.org/1999/xlink" x="0px" y="0px"
	 width="195.147px" height="173.956px" viewBox="0 0 195.147 173.956" enable-background="new 0 0 195.147 173.956"
	 xml:space="preserve">
<g>
	<linearGradient id="SVGID_1_" gradientUnits="userSpaceOnUse" x1="40.6688" y1="-7.8825" x2="40.6688" y2="166.1349">
		<stop  offset="0" style="stop-color:#CB0028"/>
		<stop  offset="0.933" style="stop-color:#CB0028;stop-opacity:0"/>
	</linearGradient>
	<path fill="url(#SVGID_1_)" d="M39.423,162.907c-7.493-0.741-14.277-4.702-20.39-11.81c-6.015-6.993-10.68-16.182-14.044-27.571
		C1.655,112.239,0,100.005,0,86.744C0,73.55,1.635,61.318,4.926,49.968c3.321-11.451,7.867-20.678,13.683-27.684
		c5.907-7.116,12.558-11.078,19.99-11.811c2.939-0.29,5.984,0.065,9.134,1.069c3.175,1.014,6.279,2.742,9.315,5.192
		c3.057,2.47,5.883,5.523,8.472,9.16c4.981,6.853,8.87,15.51,11.635,25.961c2.784,10.523,4.183,22.179,4.183,34.911
		c0,7.773-0.535,15.185-1.602,22.221c-1.065,7.019-2.644,13.497-4.731,19.427c-2.078,5.901-4.64,11.227-7.679,15.972
		c-3.016,4.711-6.313,8.53-9.883,11.465C51.154,161.145,45.151,163.473,39.423,162.907z M21.026,73.486v26.733
		c0,19.605,1.401,34.173,4.218,43.76c2.838,9.659,7.271,14.8,13.354,15.374c12.084,1.141,18.268-16.801,18.268-53.853V76.742
		c0-8.328-0.179-16.024-0.538-23.081c-0.359-7.049-0.826-12.24-1.399-15.575c-2.426-16.631-7.959-24.504-16.468-23.708
		c-4.186,0.392-7.541,2.72-10.089,6.966c-2.531,4.219-4.385,10.526-5.572,18.925C21.616,48.644,21.026,59.708,21.026,73.486z"/>
	<linearGradient id="SVGID_2_" gradientUnits="userSpaceOnUse" x1="143.8617" y1="-7.8825" x2="143.8617" y2="166.0735">
		<stop  offset="0" style="stop-color:#CB0028"/>
		<stop  offset="0.933" style="stop-color:#CB0028;stop-opacity:0"/>
	</linearGradient>
	<path fill="url(#SVGID_2_)" d="M195.147,106.922l-9.828,67.034l-92.586-8.817c0.315-7.328,3.13-15.262,8.498-23.877
		c4.842-7.539,14.31-18.075,28.718-31.889c8.147-8.019,13.192-13.152,15.025-15.287c0.356-0.476,0.77-1.012,1.246-1.608
		c0.476-0.597,1.012-1.292,1.607-2.091c4.797-6.66,8.277-13.34,10.409-20.008c2.143-6.698,3.217-14.247,3.217-22.624
		c0-14.311-2.652-25.098-7.907-32.299c-5.196-7.114-12.465-10.205-21.704-9.345c-6.844,0.637-13.051,3.112-18.647,7.389
		c-5.523,4.223-9.819,9.63-12.926,16.229c-3.083,6.55-4.617,13.574-4.617,21.107c0,8.212,1.296,12.28,3.897,12.207
		c1.067-0.03,1.682-1.147,1.842-3.352c0.214-1.828,0.589-3.699,1.125-5.619c1.451-4.773,3.3-8.307,5.551-10.596
		c2.261-2.301,5.099-3.55,8.525-3.739c2.839-0.156,5.403,0.558,7.685,2.148c2.294,1.601,4.071,3.958,5.327,7.074
		c1.26,3.126,1.892,6.618,1.892,10.469c0,4.402-0.816,8.409-2.447,12.009c-1.625,3.588-3.811,6.408-6.547,8.456
		c-2.721,2.038-5.771,3.058-9.142,3.072c-6.177,0.026-11.178-2.914-15.046-8.779c-3.835-5.811-5.738-13.235-5.738-22.318
		c0-5.478,0.748-10.905,2.247-16.294c1.504-5.408,3.689-10.262,6.569-14.571c7.887-12.028,20.337-18.965,37.755-20.688
		c7.43-0.735,14.412-0.195,20.924,1.645c6.609,1.869,12.368,4.94,17.247,9.228c4.932,4.335,8.746,9.638,11.416,15.898
		c2.686,6.299,4.034,13.248,4.034,20.823c0,11.026-2.988,20.931-8.906,29.63c-2.449,3.85-5.268,7.262-8.451,10.241
		c-6.049,5.16-14.973,10.906-26.6,17.16c-15.79,8.568-26.522,15.892-32.552,22.135c-1.383,1.321-4.027,4.342-7.908,9.03
		l56.899,3.353c5.679,0.335,10.05-0.089,13.074-1.28c3.04-1.199,5.441-3.545,7.189-7.045c1.754-3.512,3.286-8.849,4.595-16.016
		l1.378-8.278L195.147,106.922z"/>
</g>
</svg>
