<?xml version="1.0" encoding="utf-8"?>
<!-- Generator: Adobe Illustrator 17.0.0, SVG Export Plug-In . SVG Version: 6.00 Build 0)  -->
<!DOCTYPE svg PUBLIC "-//W3C//DTD SVG 1.1//EN" "http://www.w3.org/Graphics/SVG/1.1/DTD/svg11.dtd">
<svg version="1.1" id="Слой_1" xmlns="http://www.w3.org/2000/svg" xmlns:xlink="http://www.w3.org/1999/xlink" x="0px" y="0px"
	 width="766.413px" height="787.592px" viewBox="0 0 766.413 787.592" enable-background="new 0 0 766.413 787.592"
	 xml:space="preserve">
<g>
	<path d="M238.508,787.592c-39.093,0-72.825-7.146-103.125-21.848c-55.649-27.003-95.045-78.116-117.092-151.92
		C2.677,561.557-2.981,504.448,1.473,444.085c4.23-57.33,17.942-116.138,39.653-170.065
		c22.833-56.712,53.454-106.743,91.012-148.705C173.485,79.12,221.196,45.107,273.95,24.218
		C317.766,6.869,361.437-1.249,403.436,0.155c42.149,1.406,83.113,12.323,121.754,32.449
		c36.303,18.906,71.048,46.271,103.271,81.332c30.166,32.824,58.934,73.299,85.505,120.3c26.663,47.165,43.35,93.612,49.595,138.054
		c6.255,44.516,2.216,87.494-12.005,127.742c-17.381,49.196-49.7,93.731-96.06,132.368c-40.275,33.567-91.195,62.663-151.345,86.479
		c-60.907,24.117-125.768,48.12-187.415,60.352C288.779,784.779,262.459,787.592,238.508,787.592z M394.078,1
		c-38.999,0-79.292,8.124-119.76,24.147C221.71,45.979,174.125,79.903,132.885,125.982c-37.481,41.875-68.041,91.808-90.831,148.411
		C20.382,328.227,6.694,386.931,2.47,444.159c-4.445,60.241,1.2,117.229,16.778,169.378
		c21.963,73.525,61.184,124.432,116.572,151.307c30.16,14.635,63.75,21.748,102.688,21.748c23.886,0,50.14-2.806,78.032-8.341
		c61.57-12.217,126.378-36.201,187.242-60.301c60.051-23.777,110.879-52.819,151.072-86.317
		c46.22-38.521,78.438-82.909,95.757-131.935c14.167-40.095,18.19-82.914,11.958-127.27c-6.228-44.315-22.874-90.645-49.476-137.7
		c-26.533-46.935-55.256-87.348-85.37-120.116c-32.145-34.976-66.797-62.269-102.996-81.121
		C486.221,13.436,445.402,2.556,403.403,1.155C400.318,1.052,397.181,1,394.078,1z"/>
</g>
</svg>
