<?xml version="1.0" encoding="utf-8"?>
<!-- Generator: Adobe Illustrator 17.0.0, SVG Export Plug-In . SVG Version: 6.00 Build 0)  -->
<!DOCTYPE svg PUBLIC "-//W3C//DTD SVG 1.1//EN" "http://www.w3.org/Graphics/SVG/1.1/DTD/svg11.dtd">
<svg version="1.1" id="Слой_1" xmlns="http://www.w3.org/2000/svg" xmlns:xlink="http://www.w3.org/1999/xlink" x="0px" y="0px"
	 width="114.599px" height="14.919px" viewBox="0 0 114.599 14.919" enable-background="new 0 0 114.599 14.919"
	 xml:space="preserve">
<g>
	<path fill="#E0394C" d="M27.269,5.463c0.021-0.1-0.35-0.228,0.242-0.232c1.862,0.053,3.326,0.454,5.185,0.555l0.148-0.148
		c1.42,0.225,2.913,0.463,4.425,0.703c2.807,0.255,5.6,0.509,8.387,0.762c-0.065-0.067-0.093-0.125,0.186-0.117
		c1.161,0.074,2.757,0.291,4.405,0.562c0.246,0.025,0.491,0.05,0.732,0.074c0.192-0.009,0.248-0.059,0.283-0.089
		c0.744,0.118,1.406,0.224,2.023,0.322c4.078,0.4,8.195,0.803,12.416,1.217c2.117,0.168,4.235,0.505,6.397,0.785
		c2.163,0.293,4.359,0.591,6.598,0.894c1.907,0.188,3.818,0.376,5.645,0.633c1.349,0.209,2.877,0.493,4.393,0.786
		c1.52,0.273,3.003,0.695,4.304,0.973c-0.285-0.654,6.116,0.474,4.973-0.376c1.733,0.396,4.337,0.992,4.506,0.862
		c0.51-0.388,1.969-0.643,6.66,0.093c1.826,0.333,4.556,1.148,5.218,1.193c1.041,0.073-2.264-0.856-1.224-0.784
		c-6.709-1.575-13.318-3.028-19.941-4.462c-3.299-0.781-6.665-1.242-10.02-1.858c-3.361-0.591-6.741-1.185-10.158-1.786
		c-1.178-0.116-4.002-0.674-7.76-1.102c-3.749-0.496-8.389-1.109-13.136-1.736c-1.187-0.158-2.38-0.317-3.568-0.475
		c-1.193-0.122-2.379-0.243-3.548-0.362c-2.337-0.243-4.603-0.478-6.698-0.695c-2.094-0.224-4.018-0.43-5.672-0.607
		c-1.658-0.141-3.046-0.259-4.067-0.345l-0.742-0.047c-4.455-0.349-9.867-0.751-13.664-0.634c-1.719,0.076-3.499,0.154-5.266,0.232
		c0.797,0.137,1.545,0.265,2.214,0.38C9.362,0.531,7.578,0.462,6.888,0.569C3.078,0.752,5.234,1.077,6.682,1.493
		c1.044,0.189-0.378,0.429,1.257,0.631c-1.18-0.028-1.772-0.042-2.958-0.07C4.842,2.216,8.627,2.032,7.799,2.285
		C6.663,2.204,5.386,2.283,4.206,2.255c0.406,0.228,4.09,0.151,3.902,0.366c-0.637,0.04-3.311-0.352-3.543-0.084
		C4.52,2.591,5.7,2.618,6.29,2.632C2.654,2.656,0.659,2.881,3.965,3.233C2.812,3.194,1.199,3.076,0,3.129l0.009,0.004
		c0.597,0.016,1.64,0.043,2.19,0.058L0.152,3.187C0.268,3.223,0.388,3.26,0.511,3.298c0.509,0.03,1.02,0.054,1.551,0.055
		L0.705,3.352c0.34,0.086,0.729,0.17,1.156,0.247c1.621,0.19,3.18,0.482,4.057,0.5c1.773,0.044,3.552,0.141,5.334,0.256l5.343,0.303
		C20.158,4.859,23.717,5.218,27.269,5.463z"/>
</g>
</svg>
