<?xml version="1.0" encoding="utf-8"?>
<!-- Generator: Adobe Illustrator 17.0.0, SVG Export Plug-In . SVG Version: 6.00 Build 0)  -->
<!DOCTYPE svg PUBLIC "-//W3C//DTD SVG 1.1//EN" "http://www.w3.org/Graphics/SVG/1.1/DTD/svg11.dtd">
<svg version="1.1" id="Слой_1" xmlns="http://www.w3.org/2000/svg" xmlns:xlink="http://www.w3.org/1999/xlink" x="0px" y="0px"
	 width="191.843px" height="173.368px" viewBox="0 0 191.843 173.368" enable-background="new 0 0 191.843 173.368"
	 xml:space="preserve">
<g>
	<linearGradient id="SVGID_1_" gradientUnits="userSpaceOnUse" x1="40.818" y1="-5.3559" x2="40.818" y2="166.9346">
		<stop  offset="0" style="stop-color:#CB0028"/>
		<stop  offset="0.933" style="stop-color:#CB0028;stop-opacity:0"/>
	</linearGradient>
	<path fill="url(#SVGID_1_)" d="M39.564,161.485c-7.52-0.743-14.329-4.711-20.464-11.832c-6.036-7.005-10.718-16.21-14.094-27.62
		C1.661,110.727,0,98.472,0,85.188c0-13.216,1.641-25.47,4.943-36.841C8.275,36.875,12.838,27.63,18.674,20.61
		C24.602,13.48,31.277,9.509,38.736,8.772c2.95-0.291,6.006,0.063,9.167,1.068c3.187,1.015,6.303,2.746,9.35,5.198
		c3.069,2.474,5.905,5.532,8.504,9.175c5,6.865,8.904,15.538,11.679,26.008c2.794,10.543,4.199,22.221,4.199,34.978
		c0,7.788-0.537,15.215-1.609,22.264c-1.069,7.032-2.655,13.523-4.749,19.464c-2.086,5.913-4.658,11.248-7.708,16.003
		c-3.028,4.72-6.337,8.546-9.921,11.487C51.338,159.721,45.313,162.052,39.564,161.485z M21.1,71.903v26.78
		c0,19.64,1.406,34.234,4.233,43.838c2.848,9.677,7.297,14.827,13.403,15.402c12.128,1.143,18.336-16.832,18.336-53.953V75.16
		c0-8.344-0.179-16.053-0.54-23.124c-0.36-7.062-0.829-12.263-1.405-15.603c-2.435-16.661-7.989-24.548-16.529-23.747
		c-4.201,0.394-7.569,2.728-10.126,6.982c-2.54,4.227-4.401,10.547-5.592,18.961C21.692,47.017,21.1,58.101,21.1,71.903z"/>
	<linearGradient id="SVGID_2_" gradientUnits="userSpaceOnUse" x1="144.4024" y1="-5.3559" x2="144.4024" y2="166.9346">
		<stop  offset="0" style="stop-color:#CB0028"/>
		<stop  offset="0.933" style="stop-color:#CB0028;stop-opacity:0"/>
	</linearGradient>
	<path fill="url(#SVGID_2_)" d="M96.962,160.126l11.632,1.051c7.603,0.687,13.228-1.334,16.791-6.103
		c3.594-4.807,5.402-12.968,5.402-24.451V57.13c0-7.864-0.331-13.569-0.99-17.112c-0.66-3.536-1.991-6.498-3.986-8.882
		c-3.905-4.892-9.614-7.051-17.054-6.517l-8.677,0.623v-3.982c6.524-0.958,12.506-2.246,17.915-3.87
		c5.478-1.643,10.525-3.738,15.127-6.288c4.652-2.576,9.737-6.073,15.271-10.511L154.544,0v135.995
		c0,19.555,7.964,30.051,24.331,31.53l12.969,1.171v4.673l-94.882-9.048V160.126z"/>
</g>
</svg>
