<?xml version="1.0" encoding="utf-8"?>
<!-- Generator: Adobe Illustrator 17.0.0, SVG Export Plug-In . SVG Version: 6.00 Build 0)  -->
<!DOCTYPE svg PUBLIC "-//W3C//DTD SVG 1.1//EN" "http://www.w3.org/Graphics/SVG/1.1/DTD/svg11.dtd">
<svg version="1.1" id="Слой_1" xmlns="http://www.w3.org/2000/svg" xmlns:xlink="http://www.w3.org/1999/xlink" x="0px" y="0px"
	 width="97.547px" height="39.563px" viewBox="0 0 97.547 39.563" enable-background="new 0 0 97.547 39.563" xml:space="preserve">
<g>
	<g>
		<path fill="#FFFFFF" d="M77.766,39.563H19.781C8.874,39.563,0,30.689,0,19.781S8.874,0,19.781,0h57.984
			c10.908,0,19.781,8.874,19.781,19.781S88.673,39.563,77.766,39.563z M19.781,4.261c-8.558,0-15.52,6.962-15.52,15.52
			c0,8.558,6.962,15.52,15.52,15.52h57.984c8.558,0,15.52-6.962,15.52-15.52c0-8.558-6.962-15.52-15.52-15.52H19.781z"/>
	</g>
	<g>
		<path fill="#FFFFFF" d="M24.965,24.19h-1.958l-0.052-0.7c-0.713,0.584-1.608,0.895-2.607,0.895c-2.879,0-4.837-1.893-4.837-4.604
			c0-2.645,1.997-4.603,4.785-4.603c0.973,0,1.699,0.246,2.217,0.648v-0.454h2.373v3.307h-2.749
			c-0.233-0.674-0.843-1.089-1.751-1.089c-1.297,0-1.997,0.96-1.997,2.088c0,1.323,0.817,2.243,2.166,2.243
			c0.687,0,1.413-0.259,1.971-0.895l-2.451-0.039v-1.828l4.889,0.013V24.19z"/>
		<path fill="#FFFFFF" d="M35.3,24.19h-4.007v-1.18l-0.998-1.31h-0.791v2.49h-3.553v-2.166h0.843v-4.5h-0.843v-2.153h4.824
			c2.451,0,3.877,1.18,3.877,3.216c0,1.141-0.519,2.036-1.452,2.568l0.739,0.869H35.3V24.19z M30.775,19.535
			c0.674,0,1.128-0.389,1.128-0.96c0-0.545-0.454-0.908-1.128-0.908h-1.271v1.867H30.775z"/>
		<path fill="#FFFFFF" d="M41.434,22.025h1.154v2.166h-5.044v-2.166h1.154v-0.182l-2.347-4.318h-1.258v-2.153h4.487v2.153h-0.22
			l0.687,1.258l0.687-1.258h-0.207v-2.153h4.487v2.153h-1.245l-2.334,4.318V22.025z"/>
		<path fill="#FFFFFF" d="M54.233,18.861h-2.166V17.72h-0.869v4.305h1.336v2.166h-5.382v-2.166h1.336V17.72H47.62v1.141h-2.166
			v-3.488h8.779V18.861z"/>
		<path fill="#FFFFFF" d="M60.509,18.874c1.439,0.311,2.321,1.012,2.321,2.568c0,1.867-1.271,2.944-3.294,2.944
			c-1.024,0-1.88-0.272-2.503-0.817v0.622h-2.179v-2.97h2.334c0.298,0.61,0.947,0.895,1.751,0.895c0.622,0,0.882-0.208,0.882-0.48
			c0-0.207-0.13-0.441-0.661-0.558l-1.751-0.376c-1.738-0.363-2.529-1.193-2.529-2.607c0-1.919,1.504-2.918,3.359-2.918
			c0.752,0,1.634,0.169,2.308,0.7v-0.506h2.153v2.814h-2.529c-0.194-0.454-0.661-0.804-1.375-0.804
			c-0.467,0-0.791,0.169-0.791,0.532c0,0.324,0.259,0.48,0.674,0.558L60.509,18.874z"/>
		<path fill="#FFFFFF" d="M73.568,24.19h-3.592v-1.66l-0.052-0.143h-3.203l-0.052,0.13v1.673h-3.566v-2.166h0.96l1.841-4.5h-0.843
			v-2.153h4.785l2.736,6.652h0.986V24.19z M68.303,17.979l-0.817,2.269h1.647L68.303,17.979z"/>
		<path fill="#FFFFFF" d="M78.456,22.025h1.154v2.166h-5.044v-2.166h1.154v-0.182l-2.347-4.318h-1.258v-2.153h4.487v2.153h-0.221
			l0.687,1.258l0.687-1.258h-0.207v-2.153h4.487v2.153h-1.245l-2.334,4.318V22.025z"/>
	</g>
	<g opacity="0.1">
		<path fill="#FFFFFF" d="M77.766,4.261H19.781c-8.558,0-15.52,6.962-15.52,15.52c0,0.42,0.022,0.836,0.055,1.248
			c0.638-7.976,7.328-14.273,15.466-14.273h57.984c8.138,0,14.828,6.297,15.466,14.273c0.033-0.412,0.055-0.827,0.055-1.248
			C93.286,11.223,86.324,4.261,77.766,4.261z"/>
	</g>
</g>
</svg>
