<?xml version="1.0" encoding="utf-8"?>
<!-- Generator: Adobe Illustrator 17.0.0, SVG Export Plug-In . SVG Version: 6.00 Build 0)  -->
<!DOCTYPE svg PUBLIC "-//W3C//DTD SVG 1.1//EN" "http://www.w3.org/Graphics/SVG/1.1/DTD/svg11.dtd">
<svg version="1.1" id="Слой_1" xmlns="http://www.w3.org/2000/svg" xmlns:xlink="http://www.w3.org/1999/xlink" x="0px" y="0px"
	 width="156.333px" height="38.543px" viewBox="0 0 156.333 38.543" enable-background="new 0 0 156.333 38.543"
	 xml:space="preserve" fill="#ffffff">
<g>
	<g>
		<g>
			<path d="M74.272,2.345H60.686v15.798h13.586c4.841,0,9.093-2.528,9.093-7.899S79.113,2.345,74.272,2.345z M72.454,14.735H65.5
				V5.753h6.954c3.637,0,6.098,0.654,6.098,4.491S76.091,14.735,72.454,14.735z"/>
			<polygon points="85.103,18.143 104.893,18.143 104.893,14.916 89.917,14.916 89.917,11.711 104.893,11.711 104.893,8.777 
				89.917,8.777 89.917,5.573 104.893,5.573 104.893,2.345 85.103,2.345 			"/>
			<polygon points="125.94,14.216 113.156,2.345 106.63,2.345 106.63,18.143 111.444,18.143 111.444,6.295 124.202,18.143 
				130.754,18.143 130.754,2.345 125.94,2.345 			"/>
			<polygon points="155.33,2.345 132.33,2.345 132.33,5.753 141.423,5.753 141.423,18.143 146.237,18.143 146.237,5.753 
				155.33,5.753 			"/>
		</g>
		<g>
			<polygon points="91.481,20.4 86.667,20.4 86.667,36.198 105.923,36.198 105.923,32.79 91.481,32.79 			"/>
			<polygon points="107.793,36.198 127.584,36.198 127.584,32.971 112.607,32.971 112.607,29.766 127.584,29.766 127.584,26.832 
				112.607,26.832 112.607,23.627 127.584,23.627 127.584,20.4 107.793,20.4 			"/>
			<path d="M69.338,20.4l-9.655,15.798h5.296l2.006-3.363h11.206l2.006,3.363h5.322L75.837,20.4H69.338z M68.777,29.811l3.825-6.41
				l3.797,6.41H68.777z"/>
			<path d="M156.333,20.4h-6.659l-7.141,5.417l-7.167-5.417h-6.633l10.537,7.899l-10.537,7.899h6.633l8.951-6.775
				c0,0-0.937,2,0.892,3.388h0l4.465,3.387h6.659l-10.537-7.899L156.333,20.4z"/>
		</g>
	</g>
	<g>
		<g>
			<linearGradient id="SVGID_1_" gradientUnits="userSpaceOnUse" x1="0" y1="19.2716" x2="40.6428" y2="19.2716">
				<stop  offset="0" style="stop-color:#ffffff;stop-opacity:0.1"/>
				<stop  offset="1" style="stop-color:#ffffff"/>
			</linearGradient>
			<polygon fill="url(#SVGID_1_)" points="0,38.543 0,33.845 35.945,33.845 35.945,4.698 0,4.698 0,0 40.643,0 40.643,38.543 			"/>
		</g>
	</g>
	<g>
		<polygon points="24.194,19.011 20.187,15.965 11.417,9.297 11.415,9.295 3.31,9.295 16.187,19.036 3.31,28.777 11.415,28.777 
			20.174,22.097 20.187,22.107 24.194,19.061 24.227,19.036 		"/>
	</g>
</g>
</svg>
